<svg width="27" height="27" viewBox="0 0 27 27" fill="none" xmlns="http://www.w3.org/2000/svg">
<rect width="26.9155" height="26.9155" rx="13.4577" fill="#F0E714"/>
<path d="M16.0984 6.90137C16.3345 6.92723 16.5445 6.92723 16.7806 6.95309C16.9381 6.95309 17.0955 6.97896 17.253 7.00482C17.253 7.70313 17.253 8.37557 17.253 9.09974C17.2005 9.09974 17.1218 9.09974 17.0693 9.09974C16.6232 9.09974 16.1771 9.09974 15.731 9.12561C15.1799 9.15147 14.865 9.43597 14.8388 9.9791C14.8125 10.5481 14.8388 11.1171 14.8388 11.7119C15.5998 11.7119 16.387 11.7119 17.1743 11.7119C17.0693 12.4878 16.9643 13.2637 16.8594 14.0396C16.1771 14.0396 15.5211 14.0396 14.8388 14.0396C14.8388 16.0311 14.8388 18.0226 14.8388 20.014C14.0253 20.014 13.2118 20.014 12.3984 20.014C12.3984 18.0226 12.3984 16.057 12.3984 14.0396C11.7161 14.0396 11.0338 14.0396 10.3516 14.0396C10.3516 13.2637 10.3516 12.4878 10.3516 11.7119C11.0338 11.7119 11.6899 11.7119 12.3984 11.7119C12.3984 11.6343 12.3984 11.6085 12.3984 11.5568C12.3984 10.936 12.3984 10.3412 12.3984 9.72046C12.4246 8.99629 12.6608 8.32385 13.1856 7.75485C13.5792 7.34104 14.0778 7.10827 14.6551 6.97896C14.8125 6.95309 14.97 6.92723 15.1012 6.90137C15.4161 6.90137 15.7572 6.90137 16.0984 6.90137Z" fill="#101C26"/>
</svg>
