<svg width="27" height="27" viewBox="0 0 27 27" fill="none" xmlns="http://www.w3.org/2000/svg">
<rect width="26.9155" height="26.9155" rx="13.4577" fill="#F0E714"/>
<path d="M14.6404 20.6365C13.6696 20.6365 12.7559 20.6365 11.7852 20.6365C11.7852 17.5814 11.7852 14.5263 11.7852 11.4426C12.6703 11.4426 13.584 11.4426 14.4977 11.4426C14.4977 11.8423 14.4977 12.2421 14.4977 12.6704C14.5262 12.6418 14.5548 12.6418 14.5548 12.6418C15.1544 11.671 16.0395 11.2427 17.153 11.2142C17.7812 11.1856 18.4094 11.2713 18.9804 11.5568C19.7228 11.8994 20.1511 12.5276 20.3795 13.2985C20.5793 13.9267 20.6365 14.5548 20.6365 15.183C20.6365 16.9533 20.6365 18.7235 20.6365 20.4938C20.6365 20.5223 20.6365 20.5509 20.6365 20.5794C19.6942 20.5794 18.752 20.5794 17.7812 20.5794C17.7812 20.5223 17.7812 20.4652 17.7812 20.3796C17.7812 18.8663 17.7812 17.3815 17.7812 15.8683C17.7812 15.5256 17.7526 15.183 17.6955 14.8404C17.5242 13.8981 16.8961 13.584 16.0395 13.6983C15.24 13.7839 14.8117 14.2693 14.669 15.1259C14.6119 15.44 14.6119 15.754 14.6119 16.0681C14.6119 17.4958 14.6119 18.9519 14.6119 20.3796C14.6404 20.4938 14.6404 20.5509 14.6404 20.6365Z" fill="#101C26"/>
<path d="M7.12891 11.4707C8.07114 11.4707 9.01338 11.4707 9.95561 11.4707C9.95561 14.5258 9.95561 17.581 9.95561 20.6361C9.01338 20.6361 8.07114 20.6361 7.12891 20.6361C7.12891 17.581 7.12891 14.5258 7.12891 11.4707Z" fill="#101C26"/>
<path d="M10.1859 8.52966C10.1859 9.44335 9.44352 10.1857 8.55839 10.2143C7.64471 10.2143 6.90234 9.4719 6.90234 8.55821C6.90234 7.64453 7.64471 6.90216 8.55839 6.90216C9.44352 6.87361 10.1859 7.61598 10.1859 8.52966Z" fill="#101C26"/>
</svg>
