<svg width="27" height="27" viewBox="0 0 27 27" fill="none" xmlns="http://www.w3.org/2000/svg">
<rect width="26.9155" height="26.9155" rx="13.4577" fill="#F0E714"/>
<path d="M6.90234 17.8458C8.42299 17.9664 9.82667 17.6044 11.0549 16.6389C9.76819 16.5182 8.89089 15.8544 8.423 14.5872C8.8324 14.6475 9.2418 14.6475 9.70969 14.5268C9.00785 14.3458 8.48148 13.9837 8.07207 13.501C7.66267 12.9579 7.42872 12.3544 7.42872 11.6303C7.83812 11.8113 8.24754 11.9924 8.71543 11.9924C8.07208 11.5096 7.72116 10.9665 7.5457 10.2424C7.37024 9.51827 7.48721 8.79414 7.83813 8.13035C9.35878 10.001 11.2888 11.0269 13.6868 11.2079C13.6868 10.9062 13.6283 10.6648 13.6868 10.3631C13.7453 9.1562 14.6226 8.00966 15.7338 7.70794C16.7866 7.40622 17.7223 7.70794 18.4827 8.43207C18.5411 8.49242 18.5996 8.49242 18.6581 8.49242C19.243 8.37173 19.7694 8.13035 20.3542 7.82863C20.1203 8.49242 19.7109 9.03551 19.1845 9.39758C19.1845 9.39758 19.1845 9.39758 19.1845 9.45792C19.4185 9.39758 19.7109 9.33723 19.9448 9.27689C20.1788 9.21655 20.4712 9.09586 20.7052 9.03551C20.3542 9.51827 20.0033 10.001 19.5354 10.3631C19.36 10.4838 19.3015 10.6045 19.3015 10.8458C19.3015 12.1734 19.009 13.3803 18.4827 14.5872C17.7808 16.0354 16.8451 17.2423 15.4999 18.0871C14.5641 18.6906 13.5113 19.0526 12.4001 19.2337C11.6397 19.3544 10.8794 19.3544 10.1191 19.2337C8.94937 18.8716 7.89661 18.5095 6.90234 17.8458Z" fill="#101C26"/>
</svg>
